<svg version="1" xmlns="http://www.w3.org/2000/svg" width="254.667" height="254.667" viewBox="0 0 191.000000 191.000000"><path d="M83.2 39.6c-12.7 6.3-18 22.4-11.6 35.2 4.7 9.4 13.1 14.6 23.9 14.6 11 0 19.3-5.4 24.1-15.9 5.9-12.6-.2-28.8-13.1-34.6-6.3-2.9-16.8-2.6-23.3.7zm21.1 1.9c9.1 3.8 14.1 11.4 14.1 21.5 0 13.7-9.4 23-23.1 23-20.2-.1-30.6-22.8-17.4-38.1 1.9-2.3 5.3-5 7.5-6 5-2.3 14-2.5 18.9-.4z"/><path d="M94.1 45.4c-.9 1-.8 1.6.4 2.6 1.9 1.6 4.1-.1 3.2-2.4-.8-2-2.1-2-3.6-.2z"/><path d="M89.2 49.2c.5 1.5 4.7 4.5 7.5 5.3 1.4.4 3-.2 4.9-1.8l2.8-2.4-2.3-1.2c-1.7-1-2.5-1-3.7 0-1.1.9-2.1.9-4 0-3.2-1.4-5.7-1.4-5.2.1z"/><path d="M82.8 52.7c-2.1.5-2.1.8-.8 3.3.8 1.5 1.7 1.8 4.4 1.3 1.8-.3 3.6-.1 4 .5.9 1.6-.4 4.1-2.5 4.7-2.1.7-2.4 2.2-.9 4.5.7 1.2 1.3 1.3 2.8.3 1.5-.9 2.2-.9 3.1 0 1.6 1.6 1.4 6.2-.4 7.7-3.3 2.7-10.8-2.4-12.3-8.3-1-4-3.2-4.7-3.2-1.1 0 4.2 3.9 11.4 7.4 13.5 3.8 2.3 8.4 2.4 11.5.3 2.1-1.5 2.3-2.2 1.8-7.5-.4-4.7-.2-5.9.9-5.9.9 0 1.4 1.2 1.4 3.6 0 6.3 2.6 8.7 7.5 6.8 2.2-.9 5.5-7.6 5.5-11.3 0-6.1-3.3-11-7.3-11.1-1.1 0-3.1 1.2-4.5 2.8-1.5 1.5-4 3.3-5.5 4-2.6 1.1-2.8 1.1-2.2-.8.6-2-.9-5.9-2.9-7.2-1.2-.8-5-.9-7.8-.1zm26.2 9.7c1.4 3.8-.2 8.1-3.1 8.1-2.2 0-2.4-.4-2.7-5.3-.3-5-.2-5.2 2.3-5.2 1.8 0 2.8.7 3.5 2.4zM69.8 90.9c-8.1 1.6-10.5 8.6-4.9 14.2 3.2 3.1 4.5 3.4 8.7 1.9 1.5-.6 2.9-.8 3.1-.6.3.3-.3 2.5-1.2 5-1.3 3.4-1.6 5.9-1.1 10l.7 5.5-4.3 2.2c-2.4 1.2-5 2.7-5.8 3.4-.8.7-3.6 1.6-6.2 1.9-2.6.4-7.2 1.6-10.2 2.7-6.4 2.2-8.6 2.3-15.4.8-4.7-1.1-5.4-1-11.8 2-5.9 2.8-7.2 3-9.6 2-2.6-1-3.2-.8-7.3 2.6C.2 148-1 151 2.1 150.1c.8-.2 4.6-.7 8.4-1.2 3.9-.4 10.9-1.5 15.7-2.3 5.6-.9 9.8-1.2 11.5-.7 5.5 1.7 25.2 3.3 31.7 2.6 4.2-.4 6.6-.3 6.6.3 0 2.9 14.8 5.9 16.4 3.4.8-1.3-1.8-3.8-4.6-4.6-2.4-.5-2.8-1.1-2.8-4.4 0-2 1.4-8.4 3-14.1 1.7-5.7 3-11.9 3-13.8 0-3.5-3.6-11.3-5.2-11.3-1.5 0-4.8-6.4-4.8-9.2 0-1.5-.3-2.9-.7-3.1-1.8-1.1-7.1-1.4-10.5-.8zm43.1.2c-2.1.8-2.8 1.8-3.2 5.1-.4 2.8-1.6 5.2-4 7.7-6.6 6.9-6.9 9-3.1 23.1 4 14.9 4.4 17.9 2.7 19.5-.8.8-2.3 1.5-3.4 1.5-1 0-1.9.4-1.9.9s-.3 1.6-.6 2.5c-.5 1.3.2 1.6 4.3 1.6 5.1 0 11.3-2.3 11.3-4.2 0-.6 2.4-.7 6.6-.3 6.4.7 26.2-.9 31.6-2.5 2.3-.7 9.4.1 32.1 3.9 7.5 1.2 7.4-1.1-.2-6.3-3.3-2.3-4.2-2.5-6.3-1.5-2.1.9-3.3.7-7.8-1.6-5.7-2.9-8.4-3.2-17.5-2.1-4.9.7-6.9.4-11-1.2-2.7-1.1-7.4-2.3-10.2-2.7-2.9-.4-5.6-1.1-5.9-1.6-.3-.5-2.7-2.1-5.4-3.4l-4.9-2.5.1-6.8c.1-3.7-.3-8.2-.9-10.1l-1.2-3.3 4.5.7c4 .6 4.7.4 7.4-2.4 5.2-5.1 3.6-12.2-3-13.4-1.4-.3-3.6-.7-5-1-1.4-.3-3.7-.1-5.1.4z"/></svg>