<?xml version="1.0" standalone="no"?>
<!DOCTYPE svg PUBLIC "-//W3C//DTD SVG 20010904//EN"
 "http://www.w3.org/TR/2001/REC-SVG-20010904/DTD/svg10.dtd">
<svg version="1.0" xmlns="http://www.w3.org/2000/svg"
 width="191.000000pt" height="191.000000pt" viewBox="0 0 191.000000 191.000000"
 preserveAspectRatio="xMidYMid meet">
<metadata>
Created by potrace 1.11, written by Peter Selinger 2001-2013
</metadata>
<g transform="translate(0.000000,191.000000) scale(0.100000,-0.100000)"
fill="#000000" stroke="none">
<path d="M832 1514 c-127 -63 -180 -224 -116 -352 47 -94 131 -146 239 -146
110 0 193 54 241 159 59 126 -2 288 -131 346 -63 29 -168 26 -233 -7z m211
-19 c91 -38 141 -114 141 -215 0 -137 -94 -230 -231 -230 -202 1 -306 228
-174 381 19 23 53 50 75 60 50 23 140 25 189 4z"/>
<path d="M941 1456 c-9 -10 -8 -16 4 -26 19 -16 41 1 32 24 -8 20 -21 20 -36
2z"/>
<path d="M892 1418 c5 -15 47 -45 75 -53 14 -4 30 2 49 18 l28 24 -23 12 c-17
10 -25 10 -37 0 -11 -9 -21 -9 -40 0 -32 14 -57 14 -52 -1z"/>
<path d="M828 1383 c-21 -5 -21 -8 -8 -33 8 -15 17 -18 44 -13 18 3 36 1 40
-5 9 -16 -4 -41 -25 -47 -21 -7 -24 -22 -9 -45 7 -12 13 -13 28 -3 15 9 22 9
31 0 16 -16 14 -62 -4 -77 -33 -27 -108 24 -123 83 -10 40 -32 47 -32 11 0
-42 39 -114 74 -135 38 -23 84 -24 115 -3 21 15 23 22 18 75 -4 47 -2 59 9 59
9 0 14 -12 14 -36 0 -63 26 -87 75 -68 22 9 55 76 55 113 0 61 -33 110 -73
111 -11 0 -31 -12 -45 -28 -15 -15 -40 -33 -55 -40 -26 -11 -28 -11 -22 8 6
20 -9 59 -29 72 -12 8 -50 9 -78 1z m262 -97 c14 -38 -2 -81 -31 -81 -22 0
-24 4 -27 53 -3 50 -2 52 23 52 18 0 28 -7 35 -24z"/>
<path d="M698 1001 c-81 -16 -105 -86 -49 -142 32 -31 45 -34 87 -19 15 6 29
8 31 6 3 -3 -3 -25 -12 -50 -13 -34 -16 -59 -11 -100 l7 -55 -43 -22 c-24 -12
-50 -27 -58 -34 -8 -7 -36 -16 -62 -19 -26 -4 -72 -16 -102 -27 -64 -22 -86
-23 -154 -8 -47 11 -54 10 -118 -20 -59 -28 -72 -30 -96 -20 -26 10 -32 8 -73
-26 -43 -35 -55 -65 -24 -56 8 2 46 7 84 12 39 4 109 15 157 23 56 9 98 12
115 7 55 -17 252 -33 317 -26 42 4 66 3 66 -3 0 -29 148 -59 164 -34 8 13 -18
38 -46 46 -24 5 -28 11 -28 44 0 20 14 84 30 141 17 57 30 119 30 138 0 35
-36 113 -52 113 -15 0 -48 64 -48 92 0 15 -3 29 -7 31 -18 11 -71 14 -105 8z"/>
<path d="M1129 999 c-21 -8 -28 -18 -32 -51 -4 -28 -16 -52 -40 -77 -66 -69
-69 -90 -31 -231 40 -149 44 -179 27 -195 -8 -8 -23 -15 -34 -15 -10 0 -19 -4
-19 -9 0 -5 -3 -16 -6 -25 -5 -13 2 -16 43 -16 51 0 113 23 113 42 0 6 24 7
66 3 64 -7 262 9 316 25 23 7 94 -1 321 -39 75 -12 74 11 -2 63 -33 23 -42 25
-63 15 -21 -9 -33 -7 -78 16 -57 29 -84 32 -175 21 -49 -7 -69 -4 -110 12 -27
11 -74 23 -102 27 -29 4 -56 11 -59 16 -3 5 -27 21 -54 34 l-49 25 1 68 c1 37
-3 82 -9 101 l-12 33 45 -7 c40 -6 47 -4 74 24 52 51 36 122 -30 134 -14 3
-36 7 -50 10 -14 3 -37 1 -51 -4z"/>
</g>
</svg>
